<svg xmlns="http://www.w3.org/2000/svg" width="1920" height="1080" viewBox="0 0 1920 1080">
  <defs>
    <!-- Deep sky gradient -->
    <linearGradient id="sky" x1="0" y1="0" x2="0" y2="1">
      <stop offset="0%"   stop-color="#020010"/>
      <stop offset="25%"  stop-color="#0a0020"/>
      <stop offset="50%"  stop-color="#150035"/>
      <stop offset="75%"  stop-color="#0c0a2a"/>
      <stop offset="100%" stop-color="#080620"/>
    </linearGradient>

    <!-- Sun body gradient (layered sunset bands) -->
    <linearGradient id="sunBody" x1="0" y1="0" x2="0" y2="1">
      <stop offset="0%"   stop-color="#ffe45e"/>
      <stop offset="18%"  stop-color="#ffb347"/>
      <stop offset="36%"  stop-color="#ff6b6b"/>
      <stop offset="54%"  stop-color="#ff3cac"/>
      <stop offset="72%"  stop-color="#c840e9"/>
      <stop offset="100%" stop-color="#7b2ff7"/>
    </linearGradient>

    <!-- Sun horizontal slice mask (classic synthwave cut lines) -->
    <clipPath id="sunClip">
      <rect x="820" y="310" width="280" height="12"/>
      <rect x="820" y="328" width="280" height="14"/>
      <rect x="820" y="348" width="280" height="16"/>
      <rect x="820" y="370" width="280" height="18"/>
      <rect x="820" y="394" width="280" height="20"/>
      <rect x="820" y="420" width="280" height="24"/>
      <rect x="820" y="450" width="280" height="28"/>
      <rect x="820" y="484" width="280" height="34"/>
      <rect x="820" y="524" width="280" height="42"/>
    </clipPath>

    <!-- Sun ambient glow -->
    <radialGradient id="sunGlow" cx="50%" cy="40%" r="35%">
      <stop offset="0%"   stop-color="#ff3cac" stop-opacity="0.55"/>
      <stop offset="25%"  stop-color="#c840e9" stop-opacity="0.30"/>
      <stop offset="50%"  stop-color="#7b2ff7" stop-opacity="0.15"/>
      <stop offset="80%"  stop-color="#2b1055" stop-opacity="0.06"/>
      <stop offset="100%" stop-color="#000000" stop-opacity="0"/>
    </radialGradient>

    <!-- Horizon glow -->
    <linearGradient id="horizonGlow" x1="0" y1="0" x2="0" y2="1">
      <stop offset="0%"   stop-color="#ff3cac" stop-opacity="0.12"/>
      <stop offset="30%"  stop-color="#7b2ff7" stop-opacity="0.06"/>
      <stop offset="100%" stop-color="#000000" stop-opacity="0"/>
    </linearGradient>

    <!-- Grid floor gradient (fades toward horizon) -->
    <linearGradient id="gridFade" x1="0" y1="0" x2="0" y2="1">
      <stop offset="0%"   stop-color="#00d4ff" stop-opacity="0"/>
      <stop offset="15%"  stop-color="#00d4ff" stop-opacity="0.08"/>
      <stop offset="50%"  stop-color="#00d4ff" stop-opacity="0.25"/>
      <stop offset="100%" stop-color="#00d4ff" stop-opacity="0.40"/>
    </linearGradient>

    <linearGradient id="gridFadeH" x1="0" y1="0" x2="0" y2="1">
      <stop offset="0%"   stop-color="#a855f7" stop-opacity="0"/>
      <stop offset="15%"  stop-color="#a855f7" stop-opacity="0.06"/>
      <stop offset="50%"  stop-color="#a855f7" stop-opacity="0.20"/>
      <stop offset="100%" stop-color="#a855f7" stop-opacity="0.35"/>
    </linearGradient>

    <!-- Neon glow filter -->
    <filter id="glow" x="-50%" y="-50%" width="200%" height="200%">
      <feGaussianBlur stdDeviation="4" result="b"/>
      <feColorMatrix in="b" type="matrix"
        values="1 0 0 0 0
                0 1 0 0 0
                0 0 1 0 0
                0 0 0 0.9 0" result="g"/>
      <feMerge>
        <feMergeNode in="g"/>
        <feMergeNode in="SourceGraphic"/>
      </feMerge>
    </filter>

    <!-- Stronger glow for sun -->
    <filter id="sunFilter" x="-80%" y="-80%" width="260%" height="260%">
      <feGaussianBlur stdDeviation="18" result="b1"/>
      <feGaussianBlur stdDeviation="6" result="b2"/>
      <feMerge>
        <feMergeNode in="b1"/>
        <feMergeNode in="b2"/>
        <feMergeNode in="SourceGraphic"/>
      </feMerge>
    </filter>

    <!-- Subtle grain -->
    <filter id="grain" x="0%" y="0%" width="100%" height="100%">
      <feTurbulence type="fractalNoise" baseFrequency="0.75" numOctaves="3" stitchTiles="stitch"/>
      <feColorMatrix type="matrix"
        values="0 0 0 0 0.15
                0 0 0 0 0.10
                0 0 0 0 0.20
                0 0 0 0.14 0"/>
    </filter>

    <!-- Vignette -->
    <radialGradient id="vignette" cx="50%" cy="42%" r="68%">
      <stop offset="0%"   stop-color="#000000" stop-opacity="0"/>
      <stop offset="55%"  stop-color="#000000" stop-opacity="0.20"/>
      <stop offset="85%"  stop-color="#000000" stop-opacity="0.55"/>
      <stop offset="100%" stop-color="#000000" stop-opacity="0.80"/>
    </radialGradient>

    <!-- Mountain silhouette mask to cut grid behind mountains -->
    <mask id="gridMask">
      <rect width="1920" height="1080" fill="white"/>
      <!-- Back mountain fill -->
      <path d="
        M 0 660
        C 120 620, 260 680, 400 640
        C 520 605, 640 670, 780 630
        C 900 595, 1020 665, 1160 620
        C 1300 580, 1440 660, 1580 615
        C 1700 580, 1800 640, 1920 610
        L 1920 0 L 0 0 Z" fill="black"/>
    </mask>
  </defs>

  <!-- === BASE SKY === -->
  <rect width="1920" height="1080" fill="url(#sky)"/>

  <!-- === STARS === -->
  <g opacity="0.50">
    <!-- Bright stars -->
    <circle cx="145"  cy="85"  r="1.4" fill="#e0e8ff"/>
    <circle cx="390"  cy="155" r="1.1" fill="#ffd6ff"/>
    <circle cx="650"  cy="68"  r="1.6" fill="#d4f0ff"/>
    <circle cx="880"  cy="120" r="1.0" fill="#ffffff"/>
    <circle cx="1095" cy="95"  r="1.3" fill="#e0e8ff"/>
    <circle cx="1320" cy="175" r="1.1" fill="#ffd6ff"/>
    <circle cx="1540" cy="65"  r="1.5" fill="#d4f0ff"/>
    <circle cx="1780" cy="140" r="1.2" fill="#ffffff"/>
    <!-- Mid stars -->
    <circle cx="80"   cy="240" r="0.9" fill="#d4f0ff"/>
    <circle cx="310"  cy="310" r="1.0" fill="#ffffff"/>
    <circle cx="550"  cy="195" r="0.8" fill="#ffd6ff"/>
    <circle cx="740"  cy="260" r="1.1" fill="#e0e8ff"/>
    <circle cx="1010" cy="230" r="0.9" fill="#d4f0ff"/>
    <circle cx="1200" cy="290" r="1.0" fill="#ffd6ff"/>
    <circle cx="1450" cy="210" r="0.8" fill="#ffffff"/>
    <circle cx="1680" cy="280" r="1.0" fill="#e0e8ff"/>
    <circle cx="1850" cy="340" r="0.9" fill="#d4f0ff"/>
    <!-- Faint scattered -->
    <circle cx="200"  cy="420" r="0.7" fill="#d4f0ff" opacity="0.4"/>
    <circle cx="480"  cy="350" r="0.6" fill="#ffffff" opacity="0.35"/>
    <circle cx="1100" cy="370" r="0.7" fill="#ffd6ff" opacity="0.4"/>
    <circle cx="1600" cy="400" r="0.6" fill="#d4f0ff" opacity="0.3"/>
  </g>

  <!-- Shooting stars -->
  <g opacity="0.35">
    <line x1="320" y1="100" x2="280" y2="130" stroke="url(#sunGlow)" stroke-width="1.5" stroke-linecap="round"/>
    <line x1="1400" y1="80" x2="1370" y2="105" stroke="#d4f0ff" stroke-width="1" stroke-linecap="round"/>
  </g>

  <!-- === SUN GLOW (behind sun) === -->
  <rect width="1920" height="1080" fill="url(#sunGlow)"/>

  <!-- === SUN === -->
  <g filter="url(#sunFilter)">
    <!-- Full sun circle with gradient -->
    <circle cx="960" cy="440" r="115" fill="url(#sunBody)" clip-path="url(#sunClip)"/>
    <!-- Outer rings -->
    <circle cx="960" cy="440" r="130" fill="none" stroke="#ff3cac" stroke-opacity="0.50" stroke-width="1.5"/>
    <circle cx="960" cy="440" r="155" fill="none" stroke="#c840e9" stroke-opacity="0.25" stroke-width="1.5"/>
    <circle cx="960" cy="440" r="185" fill="none" stroke="#7b2ff7" stroke-opacity="0.12" stroke-width="1"/>
  </g>

  <!-- === HORIZON GLOW BAND === -->
  <rect x="0" y="580" width="1920" height="200" fill="url(#horizonGlow)"/>
  <!-- Hot line at horizon -->
  <line x1="0" y1="660" x2="1920" y2="660" stroke="#ff3cac" stroke-opacity="0.18" stroke-width="3" filter="url(#glow)"/>

  <!-- === BACK MOUNTAINS (farther, lighter) === -->
  <path d="
    M 0 660
    C 120 620, 260 680, 400 640
    C 520 605, 640 670, 780 630
    C 900 595, 1020 665, 1160 620
    C 1300 580, 1440 660, 1580 615
    C 1700 580, 1800 640, 1920 610
    L 1920 1080 L 0 1080 Z"
    fill="#0a001e" opacity="0.90"/>

  <!-- Back mountain neon edge -->
  <path d="
    M 0 660
    C 120 620, 260 680, 400 640
    C 520 605, 640 670, 780 630
    C 900 595, 1020 665, 1160 620
    C 1300 580, 1440 660, 1580 615
    C 1700 580, 1800 640, 1920 610"
    fill="none" stroke="#c840e9" stroke-opacity="0.20" stroke-width="1.5" filter="url(#glow)"/>

  <!-- === FRONT MOUNTAINS (closer, darker) === -->
  <path d="
    M 0 710
    C 160 670, 300 740, 480 695
    C 620 660, 760 745, 920 700
    C 1060 660, 1180 750, 1360 695
    C 1520 650, 1680 740, 1920 690
    L 1920 1080 L 0 1080 Z"
    fill="#060012" opacity="0.97"/>

  <!-- Front mountain neon edge -->
  <path d="
    M 0 710
    C 160 670, 300 740, 480 695
    C 620 660, 760 745, 920 700
    C 1060 660, 1180 750, 1360 695
    C 1520 650, 1680 740, 1920 690"
    fill="none" stroke="#ff3cac" stroke-opacity="0.30" stroke-width="2" filter="url(#glow)"/>

  <!-- === PERSPECTIVE GRID === -->
  <g mask="url(#gridMask)">
    <!-- Vertical converging lines -->
    <g stroke="url(#gridFade)" stroke-width="1.5">
      <line x1="60"   y1="1080" x2="960" y2="660"/>
      <line x1="180"  y1="1080" x2="960" y2="660"/>
      <line x1="310"  y1="1080" x2="960" y2="660"/>
      <line x1="450"  y1="1080" x2="960" y2="660"/>
      <line x1="590"  y1="1080" x2="960" y2="660"/>
      <line x1="730"  y1="1080" x2="960" y2="660"/>
      <line x1="850"  y1="1080" x2="960" y2="660"/>
      <line x1="960"  y1="1080" x2="960" y2="660"/>
      <line x1="1070" y1="1080" x2="960" y2="660"/>
      <line x1="1190" y1="1080" x2="960" y2="660"/>
      <line x1="1330" y1="1080" x2="960" y2="660"/>
      <line x1="1470" y1="1080" x2="960" y2="660"/>
      <line x1="1610" y1="1080" x2="960" y2="660"/>
      <line x1="1740" y1="1080" x2="960" y2="660"/>
      <line x1="1860" y1="1080" x2="960" y2="660"/>
    </g>

    <!-- Horizontal perspective lines (exponential spacing) -->
    <g stroke="url(#gridFadeH)" stroke-width="1.5">
      <line x1="0" y1="680"  x2="1920" y2="680"/>
      <line x1="0" y1="700"  x2="1920" y2="700"/>
      <line x1="0" y1="724"  x2="1920" y2="724"/>
      <line x1="0" y1="752"  x2="1920" y2="752"/>
      <line x1="0" y1="786"  x2="1920" y2="786"/>
      <line x1="0" y1="826"  x2="1920" y2="826"/>
      <line x1="0" y1="874"  x2="1920" y2="874"/>
      <line x1="0" y1="930"  x2="1920" y2="930"/>
      <line x1="0" y1="998"  x2="1920" y2="998"/>
      <line x1="0" y1="1080" x2="1920" y2="1080"/>
    </g>
  </g>

  <!-- === ATMOSPHERIC LAYERS === -->
  <!-- Grain overlay -->
  <rect width="1920" height="1080" filter="url(#grain)" opacity="0.30"/>
  <!-- Vignette -->
  <rect width="1920" height="1080" fill="url(#vignette)"/>
</svg>
